<?xml version="1.0" encoding="UTF-8" standalone="no"?>
<!-- Created with Inkscape (http://www.inkscape.org/) -->

<svg
   xmlns:dc="http://purl.org/dc/elements/1.1/"
   xmlns:cc="http://creativecommons.org/ns#"
   xmlns:rdf="http://www.w3.org/1999/02/22-rdf-syntax-ns#"
   xmlns:svg="http://www.w3.org/2000/svg"
   xmlns="http://www.w3.org/2000/svg"
   version="1.1"
   width="43.167"
   height="51.583"
   viewBox="0 0 43.167 51.583"
   id="Layer_1"
   xml:space="preserve"
   style="overflow:visible">
   <title>Green alien smiley worried</title>
   <metadata><rdf:RDF><cc:Work
       rdf:about=""><dc:format>image/svg+xml</dc:format><dc:type
         rdf:resource="http://purl.org/dc/dcmitype/StillImage" /><dc:title>Green alien smiley worried</dc:title>
		 <dc:creator>Mariana Ruiz</dc:creator>
		 <dc:date>19 August 2011</dc:date><dc:source>http://commons.wikimedia.org/wiki/File:Smiley_green_alien_worried.svg</dc:source>
		 <dc:description>Green alien smiley worried</dc:description>
		 <cc:license
         rdf:resource="http://creativecommons.org/licenses/publicdomain/" /></cc:Work>
	<cc:License
       rdf:about="http://creativecommons.org/licenses/publicdomain/"><cc:permits
         rdf:resource="http://creativecommons.org/ns#Reproduction" /><cc:permits
         rdf:resource="http://creativecommons.org/ns#Distribution" /><cc:permits
         rdf:resource="http://creativecommons.org/ns#DerivativeWorks" /></cc:License></rdf:RDF>
</metadata>
<defs id="defs102" />
<g
   id="g3">
	<ellipse
   cx="19.606001"
   cy="48.513"
   rx="18.429001"
   ry="2.184"
   id="ellipse5"
   style="opacity:0.75;fill:#bdbec0" />
	<path
   d="m 20.324,12.592 c 7.596,0.152 14.545,5.17 16.803,12.845 2.791,9.482 -2.633,19.43 -12.113,22.22 C 15.532,50.448 5.584,45.024 2.793,35.543 0.454,27.598 3.884,19.322 10.639,15.208 L 10.626,14.805 C 10.024,14.368 8.059,11.822 7.876,11.88 5.906,12.528 3.783,11.458 3.134,9.487 2.485,7.517 3.557,5.395 5.526,4.747 7.496,4.099 9.62,5.169 10.268,7.14 c 0.392,1.189 0.155,2.436 -0.526,3.378 -0.099,0.137 1.889,2.858 2.208,3.506 l 0.716,0.12 c 0.719,-0.32 1.466,-0.596 2.241,-0.823 1.049,-0.309 2.103,-0.517 3.153,-0.63 l 0.577,-0.468 C 18.507,11.523 18.459,8.146 18.298,8.091 17.204,7.734 16.288,6.876 15.9,5.697 15.25,3.728 16.322,1.605 18.291,0.958 c 1.97,-0.649 4.092,0.422 4.743,2.392 0.647,1.971 -0.424,4.093 -2.394,4.741 -0.188,0.063 -0.39,3.346 -0.621,4.113 l 0.305,0.388 z"
   id="path7"
   style="fill:#8cc641;stroke:#046132;stroke-width:0.4831" />
	
		<radialGradient
   cx="-88.236298"
   cy="869.1084"
   r="23.3585"
   id="XMLID_8_"
   gradientUnits="userSpaceOnUse"
   gradientTransform="matrix(0.9593,-0.2824,0.2824,0.9593,-138.0665,-834.3804)">
		<stop
   id="stop10"
   style="stop-color:#fcee23;stop-opacity:1"
   offset="0" />
		<stop
   id="stop12"
   style="stop-color:#076e3a;stop-opacity:1"
   offset="1" />
	</radialGradient>
	<circle
   cx="19.905001"
   cy="30.587999"
   r="17.337"
   id="circle14"
   style="fill:url(#XMLID_8_);stroke:#2b9145;stroke-width:0.4831" />
	
		<radialGradient
   cx="-123.8872"
   cy="860.07031"
   r="4.2550998"
   id="XMLID_9_"
   gradientUnits="userSpaceOnUse"
   gradientTransform="matrix(0.9499,-0.3127,0.3127,0.9499,-144.0947,-848.552)">
		<stop
   id="stop17"
   style="stop-color:#fcee23;stop-opacity:1"
   offset="0" />
		<stop
   id="stop19"
   style="stop-color:#076e3a;stop-opacity:1"
   offset="1" />
	</radialGradient>
	<circle
   cx="6.6869998"
   cy="8.335"
   r="3.1589999"
   id="circle21"
   style="opacity:0.5;fill:url(#XMLID_9_)" />
	
		<radialGradient
   cx="-110.5752"
   cy="860.46191"
   r="4.2550998"
   id="XMLID_10_"
   gradientUnits="userSpaceOnUse"
   gradientTransform="matrix(0.9499,-0.3127,0.3127,0.9499,-144.0947,-848.552)">
		<stop
   id="stop24"
   style="stop-color:#fcee23;stop-opacity:1"
   offset="0" />
		<stop
   id="stop26"
   style="stop-color:#076e3a;stop-opacity:1"
   offset="1" />
	</radialGradient>
	<circle
   cx="19.455"
   cy="4.546"
   r="3.1589999"
   id="circle28"
   style="opacity:0.41000001;fill:url(#XMLID_10_)" />
	
		<radialGradient
   cx="73.558601"
   cy="543.61328"
   r="6.7598"
   id="XMLID_11_"
   gradientUnits="userSpaceOnUse"
   gradientTransform="matrix(0.9904,0.1384,-0.2052,1.4688,66.1597,-784.2837)">
		<stop
   id="stop31"
   style="stop-color:#57585a;stop-opacity:1"
   offset="0" />
		<stop
   id="stop33"
   style="stop-color:#010101;stop-opacity:1"
   offset="1" />
	</radialGradient>
	<path
   d="m 28.583,28.726 c 0.674,0.747 1.612,1.181 2.815,1.047 4.627,-0.515 1.289,-10.208 -1.569,-9.401 -2.891,0.816 -3.314,6.06 -1.246,8.354 z"
   id="path35"
   style="fill:url(#XMLID_11_)" />
	
		<radialGradient
   cx="-100.6294"
   cy="886.7998"
   r="9.8956003"
   id="XMLID_12_"
   gradientUnits="userSpaceOnUse"
   gradientTransform="matrix(0.9593,-0.2824,0.2824,0.9593,-138.0665,-834.3804)">
		<stop
   id="stop38"
   style="stop-color:#20341c;stop-opacity:1"
   offset="0" />
		<stop
   id="stop40"
   style="stop-color:#076e3a;stop-opacity:1"
   offset="1" />
	</radialGradient>
	<path
   d="m 25.636,41.251 c 0.097,1.073 -1.021,1.294 -1.842,1.129 -1.025,-0.205 -1.744,-1.004 -2.805,-1.259 -0.869,-0.209 -1.509,-0.127 -2.361,-0.074 -0.959,0.06 -1.883,0.046 -2.831,0.204 -1.289,0.217 -2.021,1.088 -3.179,1.382 -1.581,0.403 -2.503,-1.113 -1.678,-2.463 1.24,-2.031 4.486,-1.918 6.518,-1.795 2.032,0.123 4.129,0.732 5.997,1.5 0.797,0.328 2.079,0.251 2.181,1.376 z"
   id="path42"
   style="fill:url(#XMLID_12_);stroke:#20341c;stroke-width:0.42030001" />
	
		<radialGradient
   cx="71.628899"
   cy="543.66803"
   r="7.7848001"
   id="XMLID_13_"
   gradientUnits="userSpaceOnUse"
   gradientTransform="matrix(0.9904,0.1384,-0.2052,1.4688,66.1597,-784.2837)">
		<stop
   id="stop45"
   style="stop-color:#57585a;stop-opacity:1"
   offset="0" />
		<stop
   id="stop47"
   style="stop-color:#010101;stop-opacity:1"
   offset="1" />
	</radialGradient>
	<path
   d="m 23.809,25.262 c -0.006,-0.039 -0.014,-0.078 -0.021,-0.116 -0.165,-0.818 -0.445,-2.225 -0.974,-2.903 -1.049,-1.342 -2.324,-0.625 -3.348,0.318 -1.404,1.293 -3.614,3.286 -2.164,5.3 0.81,1.125 3.06,1.713 4.356,1.273 1.607,-0.544 2.416,-2.261 2.151,-3.872 z"
   id="path49"
   style="fill:url(#XMLID_13_)" />
	<path
   d="m 16.294,43.751 c 0.885,-0.602 3.673,-1.172 4,0"
   id="path51"
   style="fill:none;stroke:#20341c;stroke-width:0.42030001" />
	<path
   d="m 20.825,22.956 c -0.781,-0.174 -2.456,0.956 -1.17,1.345 0.818,0.248 1.845,-0.871 1.004,-1.512"
   id="path53"
   style="fill:#ffffff" />
	<path
   d="m 29.574,21.358 c -0.818,0.026 -1.494,0.921 -0.508,1.169 0.709,0.179 1.672,-0.674 0.84,-1.002"
   id="path55"
   style="fill:#ffffff" />
	<path
   d="m 14.525,28.755 c 1.022,0.179 1.864,0.205 2.41,1.155"
   id="path57"
   style="fill:none;stroke:#20341c;stroke-width:0.42030001" />
	<radialGradient
   cx="17.3447"
   cy="40.340801"
   r="4.5798001"
   id="XMLID_14_"
   gradientUnits="userSpaceOnUse">
		<stop
   id="stop60"
   style="stop-color:#eeeac8;stop-opacity:1"
   offset="0.0112" />
		<stop
   id="stop62"
   style="stop-color:#ffffff;stop-opacity:1"
   offset="0.55620003" />
		<stop
   id="stop64"
   style="stop-color:#cccecf;stop-opacity:1"
   offset="1" />
	</radialGradient>
	<path
   d="m 12.507,42.08 c 0.547,0.411 0.879,0.664 1.248,0.031 0.33,-0.567 0.383,-1.258 0.592,-1.853 0.52,0.48 2.608,0.491 2.736,-0.423 0.477,0.528 1.233,0.484 1.877,0.413 0.802,-0.088 1.6,-0.106 2.399,-0.186 0.528,-0.052 1.59,-0.525 2.094,-0.364 -0.462,-0.147 -0.902,-0.288 -1.354,-0.463 -1.87,-0.725 -3.648,-1.047 -5.703,-1.047 -1.29,0 -2.693,0.118 -3.916,0.542 -1.917,0.665 -1.385,2.288 0.027,3.35 z"
   id="path66"
   style="fill:url(#XMLID_14_);stroke:#f7931d;stroke-width:0.42550001;stroke-linecap:round" />
	<path
   d="m 10.833,41.75 c -1.119,-0.884 0.726,-2.661 1.427,-3.024 1.055,-0.546 2.153,-0.577 3.309,-0.572 1.709,0.007 3.233,0.056 4.888,0.531 1.287,0.37 2.457,0.799 3.716,1.259"
   id="path68"
   style="fill:none;stroke:#20341c;stroke-width:0.42030001" />
	<path
   d="m 20.175,18.626 c -0.426,0.716 -1.043,1.44 -1.228,1.625 -0.811,0.814 -1.732,1.624 -2.852,1.971 -1.123,0.348 -2.351,0.398 -3.517,0.313 1.378,-0.171 3.182,-1.118 4.228,-2.124 0.731,-0.703 1.164,-1.745 1.833,-2.515 0.31,-0.357 0.706,-0.832 1.218,-0.871 1.059,-0.079 0.822,0.755 0.318,1.601 z"
   id="path70"
   style="fill:#006e3a" />
	<path
   d="m 18.603,24.5 c -0.348,0.189 -0.471,0.66 -0.448,1.027 0.292,-0.234 0.611,-0.558 0.83,-0.872 -0.13,-0.096 -0.304,-0.161 -0.382,-0.155"
   id="path72"
   style="fill:#ffffff" />
	<path
   d="m 28.306,23.236 c 0.102,0.044 0.262,0.207 0.351,0.287 -0.179,0.327 -0.15,0.789 -0.244,1.14 -0.467,-0.046 -0.403,-1.16 -0.107,-1.427"
   id="path74"
   style="fill:#ffffff" />
	<path
   d="m 3.037,27.524 c 0.862,-0.412 0.507,-2.56 0.627,-3.357 0.122,-0.809 0.571,-1.486 0.59,-2.303 -0.02,0.86 -1.61,2.197 -1.993,3.007 -0.303,0.64 -0.781,3.397 0.776,2.653 z"
   id="path76"
   style="fill:#70beea;stroke:#afe0e8;stroke-width:0.40000001" />
	<path
   d="m 6.915,21.583 c -0.11,0.788 0.687,1.564 1.389,0.977 0.925,-0.773 -0.425,-2.925 0.2,-3.448 -0.675,0.566 -1.462,1.557 -1.589,2.471 z"
   id="path78"
   style="fill:#70beea;stroke:#afe0e8;stroke-width:0.40000001" />
	<path
   d="m 29,15.167 c 0.512,0.629 0.94,3.395 2.337,2.689 1.633,-0.825 -1.141,-2.483 -2.004,-2.439"
   id="path80"
   style="fill:#70beea;stroke:#afe0e8;stroke-width:0.40000001" />
	<path
   d="m 41.521,20.517 c 0.761,0.101 1.431,-0.644 0.906,-1.354 -0.949,-1.287 -2.516,1.14 -0.906,1.354 z"
   id="path82"
   style="fill:#70beea;stroke:#afe0e8;stroke-width:0.40000001" />
	<path
   d="M 7.417,21.167 C 7.218,21.527 7.36,21.969 7.819,21.902 7.977,21.616 7.926,21.349 7.667,21.159 7.547,21.191 7.571,21.273 7.5,21.333"
   id="path84"
   style="fill:#ffffff" />
	<path
   d="M 2.417,26 C 2.311,26.06 2.241,26.667 2.5,26.927 2.787,26.669 2.887,26.04 2.417,26.084"
   id="path86"
   style="fill:#ffffff" />
	<path
   d="m 41.272,19.515 c 0.078,0.175 0.142,0.279 0.333,0.341 0.183,-0.138 0.244,-0.267 0.236,-0.494 -0.056,-0.041 -0.169,-0.072 -0.235,-0.105 -0.118,0.032 -0.096,0.123 -0.167,0.175"
   id="path88"
   style="fill:#ffffff" />
	<path
   d="m 30.5,16.833 c -0.816,0.897 1.289,0.122 0.083,-0.167"
   id="path90"
   style="fill:#ffffff" />
	<path
   d="m 38.832,23.078 c 0.761,0.101 1.431,-0.644 0.906,-1.354 -0.949,-1.287 -2.516,1.14 -0.906,1.354 z"
   id="path92"
   style="fill:#70beea;stroke:#afe0e8;stroke-width:0.40000001" />
	<path
   d="m 38.583,22.076 c 0.078,0.175 0.142,0.279 0.333,0.341 0.183,-0.138 0.244,-0.267 0.236,-0.494 -0.056,-0.041 -0.169,-0.072 -0.235,-0.105 -0.118,0.032 -0.096,0.123 -0.167,0.175"
   id="path94"
   style="fill:#ffffff" />
	<path
   d="m 37.21,18.833 c 0.801,0.106 1.507,-0.678 0.955,-1.427 -1,-1.354 -2.651,1.203 -0.955,1.427 z"
   id="path96"
   style="fill:#70beea;stroke:#afe0e8;stroke-width:0.42129999" />
	<path
   d="m 36.949,17.778 c 0.082,0.184 0.149,0.293 0.351,0.36 0.192,-0.146 0.257,-0.282 0.248,-0.521 -0.059,-0.042 -0.178,-0.075 -0.248,-0.111 -0.124,0.034 -0.101,0.129 -0.176,0.184"
   id="path98"
   style="fill:#ffffff" />
</g>
</svg>