<svg viewBox="0 0 39 52.25" xml:space="preserve" xmlns="http://www.w3.org/2000/svg"><defs><radialGradient cx="24.3291" cy="74.6758" gradientTransform="matrix(1,0,0,-1,.0376,99.4346)" gradientUnits="userSpaceOnUse" id="XMLID_7_" r="23.3586">
	<stop offset="0" stop-color="#fcee23"></stop>
	<stop offset="1" stop-color="#076e3a"></stop>
</radialGradient><radialGradient cx="2.5967" cy="88.835" gradientTransform="matrix(.9995,-.0318,-.0318,-.9995,14.4979,92.8334)" gradientUnits="userSpaceOnUse" id="XMLID_8_" r="4.2556">
	<stop offset="0" stop-color="#fcee23"></stop>
	<stop offset="1" stop-color="#076e3a"></stop>
</radialGradient><radialGradient cx="15.9082" cy="88.4414" gradientTransform="matrix(.9995,-.0318,-.0318,-.9995,14.4979,92.8334)" gradientUnits="userSpaceOnUse" id="XMLID_9_" r="4.2551">
	<stop offset="0" stop-color="#fcee23"></stop>
	<stop offset="1" stop-color="#076e3a"></stop>
</radialGradient><radialGradient cx="22.02" cy="59.9395" gradientTransform="matrix(2.1743,-.1672,-.098,-1.2744,-25.1392,116.5212)" gradientUnits="userSpaceOnUse" id="XMLID_10_" r="5.8824">
	<stop offset="0" stop-color="#20341c"></stop>
	<stop offset="1" stop-color="#076e3a"></stop>
</radialGradient><radialGradient cx="24.2646" cy="75.125" gradientTransform="matrix(-.9437,-.3308,-.3308,.9437,66.0275,-50.6407)" gradientUnits="userSpaceOnUse" id="XMLID_11_" r="10.9399">
		<stop offset="0" stop-color="#57585a"></stop>
		<stop offset="1" stop-color="#010101"></stop>
	</radialGradient><radialGradient cx="7.1948" cy="75.4941" gradientTransform="matrix(.9629,-.27,.27,.9629,-2.1441,-57.653)" gradientUnits="userSpaceOnUse" id="XMLID_12_" r="10.9399">
		<stop offset="0" stop-color="#57585a"></stop>
		<stop offset="1" stop-color="#010101"></stop>
	</radialGradient></defs>
   <title>green alien smiley in bad mood</title>
   

<path d="m37.907,48.744a18.429,2.184 0 1,0 -36.858,0 18.429,2.184 0 1,0 36.858,0" fill="#bdbec0" opacity=".75"></path>
<path d="m25.362,12.876c7.242,2.291 12.492,9.065 12.492,17.066 0,9.884-8.013,17.896-17.896,17.896s-17.896-8.011-17.896-17.895c0-8.283 5.627-15.253 13.268-17.292l.103-.392c-.454-.588-1.62-3.586-1.813-3.582-2.073.066-3.807-1.561-3.873-3.633s1.562-3.807 3.633-3.873 3.809,1.561 3.873,3.635c.04,1.251-.539,2.38-1.458,3.092-.134.104 1.005,3.275 1.129,3.986l.652.318c.78-.105 1.575-.158 2.382-.158 1.094,0 2.164.099 3.203.287l.686-.287c.072-.707.98-3.961.841-4.058-.948-.653-1.585-1.733-1.625-2.974-.065-2.073 1.562-3.807 3.634-3.873s3.807,1.561 3.873,3.633-1.561,3.807-3.634,3.873c-.198.006-1.317,3.1-1.757,3.771l.183.46z" fill="#8cc641" stroke="#046132" stroke-width=".4831"></path>

<path d="m37.215,30.022a17.338,17.338 0 1,0 -34.676,0 17.338,17.338 0 1,0 34.676,0" fill="url(#XMLID_7_)" stroke="#2b9145" stroke-width=".4831"></path>

<path d="m16.641,4.942a3.159,3.159 0 1,0 -6.318,0 3.159,3.159 0 1,0 6.318,0" fill="url(#XMLID_8_)" opacity=".5"></path>

<path d="m29.958,4.912a3.159,3.159 0 1,0 -6.318,0 3.159,3.159 0 1,0 6.318,0" fill="url(#XMLID_9_)" opacity=".41"></path>

<path d="m22.109,32.108c3.558.043 5.881.709 8.366,3.454-4.227-4.901-14.486-2.623-18.949.663 1.485-3.386 7.278-4.119 10.465-4.118l.118.001z" fill="url(#XMLID_10_)" stroke="#20341c" stroke-width=".525"></path>
<path d="m18.208,38.627c1.066-1.728 2.702-1.622 3.713-.532" fill="none" stroke="#20341c" stroke-width=".5271"></path>

	
		
	<path d="m24.533,21.505c-.301-.242-3.231-3.518-1.628-3.631 .338-.023.815.516 1.118.637 .863.345 1.879.432 2.794.55 .992.128 1.906.09 2.907.048 .793-.033 2.076-.506 2.733-.006 .217,2.759-2.249,3.623-4.528,3.372-.96-.105-2.662-.379-3.396-.97z" fill="url(#XMLID_11_)"></path>
	<path d="m31.053,20.67c-.396.126-2.862.493-1.835,1.068 .396.222.871-.009 1.205-.248 .16-.114.567-.8.63-.82z" fill="#646466"></path>


	
		
	<path d="m18.331,21.957c.316-.223 3.449-3.306 1.857-3.521-.336-.045-.846.463-1.157.565-.884.289-1.902.311-2.824.37-.998.064-1.908-.032-2.904-.138-.789-.083-2.039-.637-2.727-.18-.392,2.74 2.014,3.758 4.304,3.654 .964-.043 2.68-.207 3.451-.75z" fill="url(#XMLID_12_)"></path>
	<path d="m11.876,20.708c.387.15 2.825.674 1.763,1.183-.409.197-.868-.064-1.186-.324-.153-.125-.515-.836-.577-.859z" fill="#646466"></path>

<path d="m19.933,19.259c.184.126.397.183.681.083 .262-.093.393-.37.615-.529 .573-.41.892.496 1.482.448 .613-.049.93-.765 1.396-1.073 .726-.48 1.594-.762 2.411-1.044 .083-.443-.479-.641-.831-.61-.881.078-1.808,1.129-2.434,1.677-.504.441-.748.272-.933-.299-.205-.628-.232-1.315-.384-1.965-.097-.415-.036-.941-.203-1.324-.187.488-.375,3.776-1.042,3.095-.358-.365-.214-1.334-.384-1.802-.074.574.111,1.847-.382,2.271-.635.55-1.724-1.259-2.183-1.521-1.311-.75-1.111.474-1.688.463 .952.017 1.313.087 2.053.559 .408.26.86.617 1.21.952 .208.199.389.462.616.619z" fill="#19542a"></path>
</svg>
