<svg viewBox="0 0 47.333 49" xml:space="preserve" xmlns="http://www.w3.org/2000/svg"><defs><radialGradient cx="-76.7173" cy="28.0625" gradientTransform="matrix(-.7535,-.6575,.6575,-.7535,-50.2913,-15.1829)" gradientUnits="userSpaceOnUse" id="XMLID_7_" r="29.2031">
		<stop offset="0" stop-color="#fcee23"></stop>
		<stop offset=".927" stop-color="#04714e"></stop>
		<stop offset="1" stop-color="#076e3a"></stop>
	</radialGradient><radialGradient cx="104.2866" cy="167.0791" gradientTransform="matrix(-.0272,.9997,-.9997,-.0272,211.3107,-90.855)" gradientUnits="userSpaceOnUse" id="XMLID_8_" r="4.2544">
		<stop offset="0" stop-color="#fcee23"></stop>
		<stop offset="1" stop-color="#076e3a"></stop>
	</radialGradient><radialGradient cx="90.4165" cy="137.0303" gradientTransform="matrix(.2563,.9666,.9666,-.2563,-131.7361,-46.8119)" gradientUnits="userSpaceOnUse" id="XMLID_9_" r="4.2549">
		<stop offset="0" stop-color="#fcee23"></stop>
		<stop offset="1" stop-color="#076e3a"></stop>
	</radialGradient><radialGradient cx="-152.313" cy="-404.3428" gradientTransform="matrix(.8924,.4511,-.4511,.8924,-23.9961,466.7646)" gradientUnits="userSpaceOnUse" id="XMLID_10_" r="5.4357">
		<stop offset="0" stop-color="#1e3319"></stop>
		<stop offset="1" stop-color="#006e3a"></stop>
	</radialGradient><radialGradient cx="17.2744" cy="188.98241" gradientTransform="matrix(.9863,-.165,-.2447,-1.4628,58.2266,294.2338)" gradientUnits="userSpaceOnUse" id="XMLID_11_" r="3.4862">
			<stop offset="0" stop-color="#57585a"></stop>
			<stop offset="1" stop-color="#010101"></stop>
		</radialGradient><radialGradient cx="16.249" cy="206.40919" gradientTransform="matrix(.9984,.057,.0845,-1.4807,-17.5142,320.9097)" gradientUnits="userSpaceOnUse" id="XMLID_12_" r="3.9343">
			<stop offset="0" stop-color="#57585a"></stop>
			<stop offset="1" stop-color="#010101"></stop>
		</radialGradient></defs>
   <title>green alien smiley with bubble</title>



	<path d="m43.56,45.667a18.428,2.184 0 1,0 -36.856,0 18.428,2.184 0 1,0 36.856,0" fill="#bdbec0" opacity=".75"></path>
	<path d="m42.328,26.539c.288,1.341.661,2.67.688,4.064 .039,1.983-.531,3.708-1.594,5.415-1.195,1.919-2.332,3.785-4.17,5.146-3.048,2.254-7.172,3.453-10.94,3.205-1.435-.094-2.857.167-4.314-.019-1.614-.206-3.187-.649-4.693-1.26-2.357-.957-4.879-1.073-7.074-2.514-1.901-1.248-3.437-3.873-3.872-6.062-.223-1.121-.351-2.431-.292-3.592 .046-.907.309-1.788.355-2.694 .038-.746-.055-1.495-.032-2.243 .095-2.993.957-5.936 2.482-8.512 4.076-6.883 12.047-10.037 19.445-8.316 0,0 .391-.301.391-.328 .477.014 1.047-.135 1.531-.141-.076.23-.145.418-.193.525l.445.598c.988.367 1.959.828 2.898,1.387 .695.41 1.352.861 1.971,1.348l.723.061c.078-.09.982,1.471.982,1.471 1.929,1.969 3.384,4.386 4.231,7.008 .303.938.674,2.039.698,3.032 .021.82.162,1.622.334,2.421z" fill="#8cc641" stroke="#046132" stroke-width=".4831"></path>
	
		
	<path d="m20.212,43.52c1.346.316 2.729.469 4.112.458 2.446-.02 8.808.606 13.99-4.576 1.928-1.928 3.17-4.281 3.87-6.907 .637-2.391-.271-4.588-.638-6.912-.229-1.447-.408-2.877-.861-4.284-.962-2.98-2.739-5.665-5.099-7.724-7.215-6.295-18.168-5.549-24.465,1.664-2.484,2.85-3.988,6.477-4.236,10.248-.11,1.668.336,3.128-.034,4.797-.574,2.589.213,5.7 1.827,7.756 1.453,1.853 3.212,2.573 5.361,3.322 2.025.706 4.093,1.67 6.173,2.158z" fill="url(#XMLID_7_)" stroke="#2b9145" stroke-width=".4831"></path>
	<path d="m38.951,9.525c-.438-1.076-.374-2.343.29-3.406 1.094-1.761 3.41-2.301 5.173-1.205s2.297,3.412 1.201,5.172-3.412,2.301-5.17,1.203c-.165-.101-3.416,2.373-3.416,2.373-.14-.142-.232.87-.308.686-1.385-1.451-.465-1.97-.367-2.322 .859-.825 2.653-2.37 2.597-2.501z" fill="#8cc641" stroke="#046132" stroke-width=".4831"></path>
	
		
	<path d="m45.587,8.055a3.159,3.159 0 1,0 -6.318,0 3.159,3.159 0 1,0 6.318,0" fill="url(#XMLID_8_)" opacity=".5"></path>
	<path d="m29.578,7.386c.176.32 1.191.615.178,2.344-.033.199-.354-.766-.457-.596 0,0-3.734-1.66-3.869-1.523-1.461,1.473-3.838,1.48-5.311.018s-1.479-3.838-.02-5.311 3.842-1.479 5.311-.016c.891.883 1.244,2.1 1.066,3.248-.023.14 2.076,1.23 3.102,1.836z" fill="#8cc641" stroke="#046132" stroke-width=".4831"></path>
	
		
	<path d="m25.914,4.918a3.159,3.159 0 1,0 -6.318,0 3.159,3.159 0 1,0 6.318,0" fill="url(#XMLID_9_)" opacity=".5"></path>
	
		
	<path d="m20.38,37.246c-.181-.113-.34-.271-.467-.482-.817-1.355.032-4.49.76-5.743 .612-1.054 2.56-.269 3.277.716 .775,1.063.704,2.744.188,3.906-.526,1.185-2.598,2.326-3.758,1.603z" fill="url(#XMLID_10_)"></path>
	<path d="m20.066,34.274c.145-.437.274-.852.298-1.203 .077-1.115-.214-2.901 1.553-2.457 1.605.405 2.423,1.974 2.248,3.529-.185,1.646-2.372,5.186-4.219,3.094-.664-.751-.225-1.921.12-2.963z" fill="none" stroke="#1e3319" stroke-width=".5378"></path>
	
		
			
		<path d="m26.757,16.667c-.051.193-.087.387-.107.577-.192,1.801-.139,3.306.339,5.046 .326,1.187.643,2.85 2.274,2.607 .918-.137 1.889-.737 2.761-1.107 .591-.25 1.572-.323 2.086-.672 1.079-.733.904-2.647.531-3.694-.659-1.849-1.694-4.022-3.248-5.279-1.964-1.591-4.102.48-4.636,2.522z" fill="url(#XMLID_11_)"></path>
		<path d="m29.142,14.983c-.013-.031-.03-.062-.053-.091-.31-.406-1.029.19-.563.555 .334.26.758-.124.616-.464z" fill="#fff"></path>
		<path d="m27.353,17.632c.002.672.14,1.482.478,2.074-.011-.678.03-1.224.255-1.841 .119-.324.888-1.994-.196-1.707-.444.118-.538,1.108-.537,1.474z" fill="#fff"></path>
	
	
		
			
		<path d="m23.354,19.152c.639-1.898.785-4.355-.708-5.933-.354-.375-.719-.428-1.244-.397-.874.05-1.89.529-2.641,1.018-1.696,1.105-3.481,2.96-4.063,4.924-1.356,4.582 5.161,6.067 7.482,2.736 .487-.697.889-1.5 1.174-2.348z" fill="url(#XMLID_12_)"></path>
		<path d="m20.426,14.646c.135-.101.171-.266-.032-.461-.396-.38-1.323-.014-.683.464 .204.152.541.127.715-.003z" fill="#fff"></path>
		<path d="m17.992,15.394c-.132.099-.248.198-.306.247-.534.453-.915,1.079-1.191,1.716 .396-.585 1.072-.825 1.658-1.167 .277-.162 1.254-.82.416-1.066-.127-.038-.372.116-.577.27z" fill="#fff"></path>
	
	<path d="m26.279,28.083c-1.229.913-1.695,2.957-1.688,4.438 .008,1.505.277,3.877 1.313,5.063" fill="none" stroke="#1e3319" stroke-width=".5378"></path>
	<path d="m17.949,32.787c.633.841.97,1.851 1.105,2.884 .064.492.292,1.993-.346,2.228" fill="none" stroke="#1e3319" stroke-width=".5378"></path>
	
		<path d="m24.676,32.218a11.967,11.967 0 1,0 -23.934,0 11.967,11.967 0 1,0 23.934,0" fill="#edd1e5" opacity=".73" stroke="#ce91c0" stroke-width=".328"></path>
		<path d="m11.69,24.333c.45-.587-.247-1.216-.84-1.49-1.588-.735-4.028.477-5.277,1.457-1.173.921-2.091,2.32-2.628,3.701-.736,1.893-.771,3.99-.252,5.986 .165.634.48,1.636 1.038,2.054-.078-1.184-.474-2.324-.376-3.516 .096-1.168.471-2.308 1.029-3.334 1.097-2.021 2.998-3.761 5.295-4.239 .585-.121 1.324-.024 1.829-.435 .075-.06.135-.122.182-.184z" fill="#fff"></path>
		<path d="m12.492,23.567c.707.679 2.104.291 2.191-.765 .063-.768-.994-1.264-1.688-1.069-.782.219-1.123,1.238-.503,1.834z" fill="#fff"></path>
	

</svg>
