<svg viewBox="0 0 43.167 51.583" xml:space="preserve" xmlns="http://www.w3.org/2000/svg"><defs><radialGradient cx="-88.2363" cy="869.1084" gradientTransform="matrix(.9593,-.2824,.2824,.9593,-138.0665,-834.3804)" gradientUnits="userSpaceOnUse" id="XMLID_8_" r="23.3585">
		<stop offset="0" stop-color="#fcee23"></stop>
		<stop offset="1" stop-color="#076e3a"></stop>
	</radialGradient><radialGradient cx="-123.8872" cy="860.07031" gradientTransform="matrix(.9499,-.3127,.3127,.9499,-144.0947,-848.552)" gradientUnits="userSpaceOnUse" id="XMLID_9_" r="4.2551">
		<stop offset="0" stop-color="#fcee23"></stop>
		<stop offset="1" stop-color="#076e3a"></stop>
	</radialGradient><radialGradient cx="-110.5752" cy="860.46191" gradientTransform="matrix(.9499,-.3127,.3127,.9499,-144.0947,-848.552)" gradientUnits="userSpaceOnUse" id="XMLID_10_" r="4.2551">
		<stop offset="0" stop-color="#fcee23"></stop>
		<stop offset="1" stop-color="#076e3a"></stop>
	</radialGradient><radialGradient cx="73.5586" cy="543.61328" gradientTransform="matrix(.9904,.1384,-.2052,1.4688,66.1597,-784.2837)" gradientUnits="userSpaceOnUse" id="XMLID_11_" r="6.7598">
		<stop offset="0" stop-color="#57585a"></stop>
		<stop offset="1" stop-color="#010101"></stop>
	</radialGradient><radialGradient cx="-100.6294" cy="886.7998" gradientTransform="matrix(.9593,-.2824,.2824,.9593,-138.0665,-834.3804)" gradientUnits="userSpaceOnUse" id="XMLID_12_" r="9.8956">
		<stop offset="0" stop-color="#20341c"></stop>
		<stop offset="1" stop-color="#076e3a"></stop>
	</radialGradient><radialGradient cx="71.6289" cy="543.66803" gradientTransform="matrix(.9904,.1384,-.2052,1.4688,66.1597,-784.2837)" gradientUnits="userSpaceOnUse" id="XMLID_13_" r="7.7848">
		<stop offset="0" stop-color="#57585a"></stop>
		<stop offset="1" stop-color="#010101"></stop>
	</radialGradient><radialGradient cx="17.3447" cy="40.3408" gradientUnits="userSpaceOnUse" id="XMLID_14_" r="4.5798">
		<stop offset=".011" stop-color="#eeeac8"></stop>
		<stop offset=".556" stop-color="#fff"></stop>
		<stop offset="1" stop-color="#cccecf"></stop>
	</radialGradient></defs>
   <title>Green alien smiley worried</title>
   


	<path d="m38.035,48.513a18.429,2.184 0 1,0 -36.858,0 18.429,2.184 0 1,0 36.858,0" fill="#bdbec0" opacity=".75"></path>
	<path d="m20.324,12.592c7.596.152 14.545,5.17 16.803,12.845 2.791,9.482-2.633,19.43-12.113,22.22s-19.43-2.633-22.221-12.114c-2.339-7.945 1.091-16.221 7.846-20.335l-.013-.403c-.602-.437-2.567-2.983-2.75-2.925-1.97.648-4.093-.422-4.742-2.393s.423-4.092 2.392-4.74 4.094.422 4.742,2.393c.392,1.189.155,2.436-.526,3.378-.099.137 1.889,2.858 2.208,3.506l.716.12c.719-.32 1.466-.596 2.241-.823 1.049-.309 2.103-.517 3.153-.63l.577-.468c-.13-.7-.178-4.077-.339-4.132-1.094-.357-2.01-1.215-2.398-2.394-.65-1.969.422-4.092 2.391-4.739s4.092.422 4.743,2.392-.424,4.093-2.394,4.741c-.188.063-.39,3.346-.621,4.113l.305.388z" fill="#8cc641" stroke="#046132" stroke-width=".4831"></path>
	
		
	<path d="m37.242,30.588a17.337,17.337 0 1,0 -34.674,0 17.337,17.337 0 1,0 34.674,0" fill="url(#XMLID_8_)" stroke="#2b9145" stroke-width=".4831"></path>
	
		
	<path d="m9.846,8.335a3.159,3.159 0 1,0 -6.318,0 3.159,3.159 0 1,0 6.318,0" fill="url(#XMLID_9_)" opacity=".5"></path>
	
		
	<path d="m22.614,4.546a3.159,3.159 0 1,0 -6.318,0 3.159,3.159 0 1,0 6.318,0" fill="url(#XMLID_10_)" opacity=".41"></path>
	
		
	<path d="m28.583,28.726c.674.747 1.612,1.181 2.815,1.047 4.627-.515 1.289-10.208-1.569-9.401-2.891.816-3.314,6.06-1.246,8.354z" fill="url(#XMLID_11_)"></path>
	
		
	<path d="m25.636,41.251c.097,1.073-1.021,1.294-1.842,1.129-1.025-.205-1.744-1.004-2.805-1.259-.869-.209-1.509-.127-2.361-.074-.959.06-1.883.046-2.831.204-1.289.217-2.021,1.088-3.179,1.382-1.581.403-2.503-1.113-1.678-2.463 1.24-2.031 4.486-1.918 6.518-1.795s4.129.732 5.997,1.5c.797.328 2.079.251 2.181,1.376z" fill="url(#XMLID_12_)" stroke="#20341c" stroke-width=".4203"></path>
	
		
	<path d="m23.809,25.262c-.006-.039-.014-.078-.021-.116-.165-.818-.445-2.225-.974-2.903-1.049-1.342-2.324-.625-3.348.318-1.404,1.293-3.614,3.286-2.164,5.3 .81,1.125 3.06,1.713 4.356,1.273 1.607-.544 2.416-2.261 2.151-3.872z" fill="url(#XMLID_13_)"></path>
	<path d="m16.294,43.751c.885-.602 3.673-1.172 4,0" fill="none" stroke="#20341c" stroke-width=".4203"></path>
	<path d="m20.825,22.956c-.781-.174-2.456.956-1.17,1.345 .818.248 1.845-.871 1.004-1.512" fill="#fff"></path>
	<path d="m29.574,21.358c-.818.026-1.494.921-.508,1.169 .709.179 1.672-.674.84-1.002" fill="#fff"></path>
	<path d="m14.525,28.755c1.022.179 1.864.205 2.41,1.155" fill="none" stroke="#20341c" stroke-width=".4203"></path>
	
	<path d="m12.507,42.08c.547.411.879.664 1.248.031 .33-.567.383-1.258.592-1.853 .52.48 2.608.491 2.736-.423 .477.528 1.233.484 1.877.413 .802-.088 1.6-.106 2.399-.186 .528-.052 1.59-.525 2.094-.364-.462-.147-.902-.288-1.354-.463-1.87-.725-3.648-1.047-5.703-1.047-1.29,0-2.693.118-3.916.542-1.917.665-1.385,2.288.027,3.35z" fill="url(#XMLID_14_)" stroke="#f7931d" stroke-linecap="round" stroke-width=".4255"></path>
	<path d="m10.833,41.75c-1.119-.884.726-2.661 1.427-3.024 1.055-.546 2.153-.577 3.309-.572 1.709.007 3.233.056 4.888.531 1.287.37 2.457.799 3.716,1.259" fill="none" stroke="#20341c" stroke-width=".4203"></path>
	<path d="m20.175,18.626c-.426.716-1.043,1.44-1.228,1.625-.811.814-1.732,1.624-2.852,1.971s-2.351.398-3.517.313c1.378-.171 3.182-1.118 4.228-2.124 .731-.703 1.164-1.745 1.833-2.515 .31-.357.706-.832 1.218-.871 1.059-.079.822.755.318,1.601z" fill="#006e3a"></path>
	<path d="m18.603,24.5c-.348.189-.471.66-.448,1.027 .292-.234.611-.558.83-.872-.13-.096-.304-.161-.382-.155" fill="#fff"></path>
	<path d="m28.306,23.236c.102.044.262.207.351.287-.179.327-.15.789-.244,1.14-.467-.046-.403-1.16-.107-1.427" fill="#fff"></path>
	<path d="m3.037,27.524c.862-.412.507-2.56.627-3.357 .122-.809.571-1.486.59-2.303-.02.86-1.61,2.197-1.993,3.007-.303.64-.781,3.397.776,2.653z" fill="#70beea" stroke="#afe0e8" stroke-width=".4"></path>
	<path d="m6.915,21.583c-.11.788.687,1.564 1.389.977 .925-.773-.425-2.925.2-3.448-.675.566-1.462,1.557-1.589,2.471z" fill="#70beea" stroke="#afe0e8" stroke-width=".4"></path>
	<path d="m29,15.167c.512.629.94,3.395 2.337,2.689 1.633-.825-1.141-2.483-2.004-2.439" fill="#70beea" stroke="#afe0e8" stroke-width=".4"></path>
	<path d="m41.521,20.517c.761.101 1.431-.644.906-1.354-.949-1.287-2.516,1.14-.906,1.354z" fill="#70beea" stroke="#afe0e8" stroke-width=".4"></path>
	<path d="m7.417,21.167c-.199.36-.057.802.402.735 .158-.286.107-.553-.152-.743-.12.032-.096.114-.167.174" fill="#fff"></path>
	<path d="m2.417,26c-.106.06-.176.667.083.927 .287-.258.387-.887-.083-.843" fill="#fff"></path>
	<path d="m41.272,19.515c.078.175.142.279.333.341 .183-.138.244-.267.236-.494-.056-.041-.169-.072-.235-.105-.118.032-.096.123-.167.175" fill="#fff"></path>
	<path d="m30.5,16.833c-.816.897 1.289.122.083-.167" fill="#fff"></path>
	<path d="m38.832,23.078c.761.101 1.431-.644.906-1.354-.949-1.287-2.516,1.14-.906,1.354z" fill="#70beea" stroke="#afe0e8" stroke-width=".4"></path>
	<path d="m38.583,22.076c.078.175.142.279.333.341 .183-.138.244-.267.236-.494-.056-.041-.169-.072-.235-.105-.118.032-.096.123-.167.175" fill="#fff"></path>
	<path d="m37.21,18.833c.801.106 1.507-.678.955-1.427-1-1.354-2.651,1.203-.955,1.427z" fill="#70beea" stroke="#afe0e8" stroke-width=".4213"></path>
	<path d="m36.949,17.778c.082.184.149.293.351.36 .192-.146.257-.282.248-.521-.059-.042-.178-.075-.248-.111-.124.034-.101.129-.176.184" fill="#fff"></path>

</svg>
