<?xml version="1.0" encoding="UTF-8" standalone="no"?>
<!-- Created with Inkscape (http://www.inkscape.org/) -->

<svg
   xmlns:dc="http://purl.org/dc/elements/1.1/"
   xmlns:cc="http://creativecommons.org/ns#"
   xmlns:rdf="http://www.w3.org/1999/02/22-rdf-syntax-ns#"
   xmlns:svg="http://www.w3.org/2000/svg"
   xmlns="http://www.w3.org/2000/svg"
   xmlns:xlink="http://www.w3.org/1999/xlink"
   version="1.1"
   width="40.833"
   height="52.176998"
   viewBox="0 0 40.833 52.177"
   id="Layer_1"
   xml:space="preserve"
   style="overflow:visible">
   <title>green alien smiley</title>
   <metadata><rdf:RDF><cc:Work
       rdf:about=""><dc:format>image/svg+xml</dc:format><dc:type
         rdf:resource="http://purl.org/dc/dcmitype/StillImage" /><dc:title>green alien smiley</dc:title>
		 <dc:creator>Mariana Ruiz</dc:creator>
		 <dc:date>9 January 2007</dc:date>
	<dc:source>http://commons.wikimedia.org/wiki/File:Smiley_green_alien.svg</dc:source>
		 <dc:description>green alien smiley</dc:description>
		 <cc:license
         rdf:resource="http://creativecommons.org/licenses/publicdomain/" /></cc:Work>
	<cc:License
       rdf:about="http://creativecommons.org/licenses/publicdomain/"><cc:permits
         rdf:resource="http://creativecommons.org/ns#Reproduction" /><cc:permits
         rdf:resource="http://creativecommons.org/ns#Distribution" /><cc:permits
         rdf:resource="http://creativecommons.org/ns#DerivativeWorks" /></cc:License></rdf:RDF>
</metadata>
<defs
   id="defs125"><radialGradient
     cx="25.205099"
     cy="25.089399"
     r="23.358101"
     id="radialGradient2622"
     xlink:href="#XMLID_15_"
     gradientUnits="userSpaceOnUse" /><radialGradient
     cx="15.605"
     cy="3.4647999"
     r="4.2553"
     id="radialGradient2624"
     xlink:href="#XMLID_16_"
     gradientUnits="userSpaceOnUse"
     gradientTransform="matrix(0.9995,-0.0318,0.0318,0.9995,-0.6005,1.3205)" /><radialGradient
     cx="28.917"
     cy="3.8573999"
     r="4.2554998"
     id="radialGradient2626"
     xlink:href="#XMLID_17_"
     gradientUnits="userSpaceOnUse"
     gradientTransform="matrix(0.9995,-0.0318,0.0318,0.9995,-0.6005,1.3205)" /><radialGradient
     cx="20.621099"
     cy="32.391602"
     r="10.3288"
     id="radialGradient2634"
     xlink:href="#XMLID_21_"
     gradientUnits="userSpaceOnUse"
     gradientTransform="matrix(1,-2.975132e-4,2.975132e-4,1,-0.0092,0.0074)" /><radialGradient
     cx="29.248501"
     cy="33.0513"
     r="0.5715"
     id="radialGradient2636"
     xlink:href="#XMLID_22_"
     gradientUnits="userSpaceOnUse"
     gradientTransform="matrix(1,-2.975132e-4,2.975132e-4,1,-0.0092,0.0074)" /><radialGradient
     cx="9.2881002"
     cy="31.1875"
     r="0.67369998"
     id="radialGradient2638"
     xlink:href="#XMLID_23_"
     gradientUnits="userSpaceOnUse"
     gradientTransform="matrix(1,-2.975132e-4,2.975132e-4,1,-0.0092,0.0074)" /><radialGradient
     cx="21.315399"
     cy="30.9883"
     r="0.6239"
     id="radialGradient2640"
     xlink:href="#XMLID_24_"
     gradientUnits="userSpaceOnUse"
     gradientTransform="matrix(1,-2.975132e-4,2.975132e-4,1,-0.0092,0.0074)" /><radialGradient
     cx="25.6416"
     cy="30.855499"
     r="0.50370002"
     id="radialGradient2642"
     xlink:href="#XMLID_25_"
     gradientUnits="userSpaceOnUse"
     gradientTransform="matrix(1,-2.975132e-4,2.975132e-4,1,-0.0092,0.0074)" /><radialGradient
     cx="16.4795"
     cy="30.424801"
     r="0.52170002"
     id="radialGradient2644"
     xlink:href="#XMLID_26_"
     gradientUnits="userSpaceOnUse"
     gradientTransform="matrix(1,-2.975132e-4,2.975132e-4,1,-0.0092,0.0074)" /><radialGradient
     cx="25.205099"
     cy="25.089399"
     r="23.358101"
     id="XMLID_15_"
     gradientUnits="userSpaceOnUse">
			<stop
   id="stop25"
   style="stop-color:#fff200;stop-opacity:1"
   offset="0" />
			<stop
   id="stop27"
   style="stop-color:#006e3a;stop-opacity:1"
   offset="1" />
		</radialGradient><radialGradient
     cx="15.605"
     cy="3.4647999"
     r="4.2553"
     id="XMLID_16_"
     gradientUnits="userSpaceOnUse"
     gradientTransform="matrix(0.9995,-0.0318,0.0318,0.9995,-0.6005,1.3205)">
			<stop
   id="stop32"
   style="stop-color:#fff200;stop-opacity:1"
   offset="0" />
			<stop
   id="stop34"
   style="stop-color:#006e3a;stop-opacity:1"
   offset="1" />
		</radialGradient><radialGradient
     cx="28.917"
     cy="3.8573999"
     r="4.2554998"
     id="XMLID_17_"
     gradientUnits="userSpaceOnUse"
     gradientTransform="matrix(0.9995,-0.0318,0.0318,0.9995,-0.6005,1.3205)">
			<stop
   id="stop39"
   style="stop-color:#fff200;stop-opacity:1"
   offset="0" />
			<stop
   id="stop41"
   style="stop-color:#006e3a;stop-opacity:1"
   offset="1" />
		</radialGradient><radialGradient
     cx="26.121599"
     cy="23.2939"
     r="5.7563"
     id="XMLID_18_"
     gradientUnits="userSpaceOnUse">
			<stop
   id="stop46"
   style="stop-color:#565759;stop-opacity:1"
   offset="0" />
			<stop
   id="stop48"
   style="stop-color:#000000;stop-opacity:1"
   offset="1" />
		</radialGradient><radialGradient
     cx="26.122101"
     cy="23.294399"
     r="5.7563"
     id="XMLID_19_"
     gradientUnits="userSpaceOnUse">
			<stop
   id="stop53"
   style="stop-color:#565759;stop-opacity:1"
   offset="0" />
			<stop
   id="stop55"
   style="stop-color:#000000;stop-opacity:1"
   offset="1" />
		</radialGradient><radialGradient
     cx="14.2778"
     cy="41.6978"
     r="25.9135"
     id="XMLID_20_"
     gradientUnits="userSpaceOnUse">
			<stop
   id="stop60"
   style="stop-color:#1e3319;stop-opacity:1"
   offset="0" />
			<stop
   id="stop62"
   style="stop-color:#006e3a;stop-opacity:1"
   offset="1" />
		</radialGradient><radialGradient
     cx="14.2778"
     cy="41.6978"
     r="25.9135"
     id="radialGradient2702"
     xlink:href="#XMLID_20_"
     gradientUnits="userSpaceOnUse" /><radialGradient
     cx="26.122101"
     cy="23.294399"
     r="5.7563"
     id="radialGradient2705"
     xlink:href="#XMLID_19_"
     gradientUnits="userSpaceOnUse" /><radialGradient
     cx="26.121599"
     cy="23.2939"
     r="5.7563"
     id="radialGradient2708"
     xlink:href="#XMLID_18_"
     gradientUnits="userSpaceOnUse" /></defs>
<g
   id="g2720"><ellipse
     cx="20.316"
     cy="49.074001"
     rx="18.429001"
     ry="2.184"
     id="ellipse20"
     style="opacity:0.75;fill:#bcbec0" /><path
     d="m 26.199,13.206 c 7.243,2.291 12.493,9.066 12.493,17.067 0,9.884 -8.013,17.896 -17.896,17.896 C 10.912,48.169 2.9,40.156 2.9,30.273 2.9,21.989 8.527,15.02 16.168,12.981 L 16.27,12.59 C 15.816,12.002 14.65,9.003 14.458,9.008 12.385,9.074 10.651,7.447 10.585,5.374 10.519,3.301 12.146,1.568 14.218,1.501 c 2.073,-0.066 3.808,1.561 3.873,3.635 0.04,1.251 -0.539,2.38 -1.458,3.092 -0.134,0.103 1.004,3.276 1.128,3.987 l 0.653,0.317 c 0.78,-0.104 1.575,-0.157 2.382,-0.157 1.093,0 2.164,0.098 3.202,0.286 l 0.686,-0.286 C 24.756,11.667 25.664,8.414 25.525,8.317 24.576,7.664 23.94,6.583 23.9,5.343 23.835,3.27 25.462,1.536 27.534,1.47 c 2.073,-0.066 3.807,1.561 3.873,3.633 0.066,2.074 -1.561,3.807 -3.634,3.873 -0.199,0.006 -1.318,3.099 -1.757,3.771 l 0.183,0.459 z"
     id="path22"
     style="fill:#8cc63f;stroke:#006031;stroke-width:0.4831" /><circle
     cx="20.716"
     cy="30.351999"
     r="17.337999"
     id="circle29"
     style="fill:url(#radialGradient2622);stroke:#28903a;stroke-width:0.4831" /><circle
     cx="14.32"
     cy="5.2719998"
     r="3.1589999"
     id="circle36"
     style="opacity:0.5;fill:url(#radialGradient2624)" /><circle
     cx="27.636999"
     cy="5.2420001"
     r="3.1589999"
     id="circle43"
     style="opacity:0.41000001;fill:url(#radialGradient2626)" /><path
     d="m 15.461,20.23 c 0.838,0.298 1.625,0.739 2.28,1.271 0.264,0.214 0.739,0.581 0.337,0.871 -0.813,-0.6 -1.808,-0.971 -2.854,-0.968 -0.929,0.002 -1.864,0.172 -2.659,0.671 -0.776,0.486 -1.36,1.292 -2.234,1.625 -1.423,0.543 -1.525,-1.271 -0.863,-2.137 1.468,-1.92 3.891,-2.079 5.993,-1.333 z"
     id="path50"
     style="fill:url(#radialGradient2708)" /><path
     d="m 25.876,20.229 c -0.594,0.259 -2.47,1.236 -2.533,2.054 -0.062,0.819 1.084,0.152 1.421,-0.019 1.226,-0.623 2.489,-0.895 3.798,-0.223 0.774,0.397 1.388,1.158 2.217,1.419 1.363,0.431 1.984,-0.938 1.313,-2.031 -0.545,-0.886 -2.164,-1.285 -3.111,-1.466 -1.044,-0.2 -2.114,-0.169 -3.105,0.266 z"
     id="path57"
     style="fill:url(#radialGradient2705)" /><path
     d="m 6.015,27.156 c 0,0 17.333,4.874 29.477,0.959 0,0 -2.312,11.505 -15.334,13.902 C 7.133,44.414 6.015,27.156 6.015,27.156 z"
     id="path64"
     style="fill:url(#radialGradient2702);stroke:#1e3319;stroke-width:0.57969999" /><g
     id="g66">
			
				<radialGradient
   cx="20.621099"
   cy="32.391602"
   r="10.3288"
   id="XMLID_21_"
   gradientUnits="userSpaceOnUse"
   gradientTransform="matrix(1,-2.975132e-4,2.975132e-4,1,-0.0092,0.0074)">
				<stop
   id="stop69"
   style="stop-color:#eeeac8;stop-opacity:1"
   offset="0.0112" />
				<stop
   id="stop71"
   style="stop-color:#ffffff;stop-opacity:1"
   offset="0.55620003" />
				<stop
   id="stop73"
   style="stop-color:#cccecf;stop-opacity:1"
   offset="1" />
			</radialGradient>
			<path
   d="m 6.738,27.854 c 0.102,0.029 16.426,4.549 27.765,0.891 -0.092,0.03 -0.309,1.054 -0.347,1.161 -0.355,1.026 -0.815,2.016 -1.352,2.959 -0.723,1.272 -1.653,2.691 -2.799,3.613 -0.203,0.163 -0.533,0.464 -0.816,0.458 -0.542,-0.013 -0.337,-0.245 -0.274,-0.688 0.101,-0.707 0.258,-1.777 -10e-4,-2.462 -0.64,0.186 -5.41,0.875 -7.506,0.875 -1.675,0 -3.34,-0.182 -4.98,-0.526 -1.028,-0.217 -2.083,-0.254 -3.079,-0.607 -0.087,0.347 -1.123,3.276 -0.635,3.371 C 12.037,36.768 11.009,35.628 10.61,35.102 10.059,34.376 9.145,33.083 9.123,32.132 8.519,32.073 7.973,31.794 7.425,31.585 7.276,31.242 6.879,27.894 6.738,27.854 z"
   id="path75"
   style="fill:url(#radialGradient2634);stroke:#f7931d;stroke-width:0.4587;stroke-linecap:round" />
			
				<radialGradient
   cx="29.248501"
   cy="33.0513"
   r="0.5715"
   id="XMLID_22_"
   gradientUnits="userSpaceOnUse"
   gradientTransform="matrix(1,-2.975132e-4,2.975132e-4,1,-0.0092,0.0074)">
				<stop
   id="stop78"
   style="stop-color:#eeeac8;stop-opacity:1"
   offset="0.0112" />
				<stop
   id="stop80"
   style="stop-color:#ffffff;stop-opacity:1"
   offset="0.55620003" />
				<stop
   id="stop82"
   style="stop-color:#cccecf;stop-opacity:1"
   offset="1" />
			</radialGradient>
			
				<line
   style="fill:url(#radialGradient2636);stroke:#f7931d;stroke-width:0.4587;stroke-linecap:round"
   id="line84"
   y2="33.785999"
   x2="28.914"
   y1="32.316002"
   x1="29.586" />
			
				<radialGradient
   cx="9.2881002"
   cy="31.1875"
   r="0.67369998"
   id="XMLID_23_"
   gradientUnits="userSpaceOnUse"
   gradientTransform="matrix(1,-2.975132e-4,2.975132e-4,1,-0.0092,0.0074)">
				<stop
   id="stop87"
   style="stop-color:#eeeac8;stop-opacity:1"
   offset="0.0112" />
				<stop
   id="stop89"
   style="stop-color:#ffffff;stop-opacity:1"
   offset="0.55620003" />
				<stop
   id="stop91"
   style="stop-color:#cccecf;stop-opacity:1"
   offset="1" />
			</radialGradient>
			
				<line
   style="fill:url(#radialGradient2638);stroke:#f7931d;stroke-width:0.4587;stroke-linecap:round"
   id="line93"
   y2="32.131001"
   x2="9.1230001"
   y1="30.254999"
   x1="9.4560003" />
			
				<radialGradient
   cx="21.315399"
   cy="30.9883"
   r="0.6239"
   id="XMLID_24_"
   gradientUnits="userSpaceOnUse"
   gradientTransform="matrix(1,-2.975132e-4,2.975132e-4,1,-0.0092,0.0074)">
				<stop
   id="stop96"
   style="stop-color:#eeeac8;stop-opacity:1"
   offset="0.0112" />
				<stop
   id="stop98"
   style="stop-color:#ffffff;stop-opacity:1"
   offset="0.55620003" />
				<stop
   id="stop100"
   style="stop-color:#cccecf;stop-opacity:1"
   offset="1" />
			</radialGradient>
			
				<line
   style="fill:url(#radialGradient2640);stroke:#f7931d;stroke-width:0.4587;stroke-linecap:round"
   id="line102"
   y2="31.872999"
   x2="21.316999"
   y1="30.107"
   x1="21.316" />
			
				<radialGradient
   cx="25.6416"
   cy="30.855499"
   r="0.50370002"
   id="XMLID_25_"
   gradientUnits="userSpaceOnUse"
   gradientTransform="matrix(1,-2.975132e-4,2.975132e-4,1,-0.0092,0.0074)">
				<stop
   id="stop105"
   style="stop-color:#eeeac8;stop-opacity:1"
   offset="0.0112" />
				<stop
   id="stop107"
   style="stop-color:#ffffff;stop-opacity:1"
   offset="0.55620003" />
				<stop
   id="stop109"
   style="stop-color:#cccecf;stop-opacity:1"
   offset="1" />
			</radialGradient>
			
				<line
   style="fill:url(#radialGradient2642);stroke:#f7931d;stroke-width:0.4587;stroke-linecap:round"
   id="line111"
   y2="31.568001"
   x2="25.643"
   y1="30.143999"
   x1="25.643" />
			
				<radialGradient
   cx="16.4795"
   cy="30.424801"
   r="0.52170002"
   id="XMLID_26_"
   gradientUnits="userSpaceOnUse"
   gradientTransform="matrix(1,-2.975132e-4,2.975132e-4,1,-0.0092,0.0074)">
				<stop
   id="stop114"
   style="stop-color:#eeeac8;stop-opacity:1"
   offset="0.0112" />
				<stop
   id="stop116"
   style="stop-color:#ffffff;stop-opacity:1"
   offset="0.55620003" />
				<stop
   id="stop118"
   style="stop-color:#cccecf;stop-opacity:1"
   offset="1" />
			</radialGradient>
			
				<line
   style="fill:url(#radialGradient2644);stroke:#f7931d;stroke-width:0.4587;stroke-linecap:round"
   id="line120"
   y2="31.166"
   x2="16.48"
   y1="29.691"
   x1="16.48" />
		</g><path
     d="m 18.345,38.313 c -1.017,0.147 -2.664,1.386 -3.289,2.16 -0.341,0.423 -0.447,0.354 0.144,0.698 0.282,0.165 0.898,0.223 1.204,0.1 0.455,-0.183 0.742,-0.748 1.112,-1.119 0.38,-0.381 0.949,-1.065 1.574,-0.857 0.795,0.265 0.504,1.086 0.147,1.588 0.553,-0.179 1.139,-0.778 1.147,-1.379 1.202,0.159 1.596,-0.106 2.636,-0.693 -0.662,0.04 -1.537,0.176 -2.33,-0.04 -0.803,-0.221 -1.467,-0.585 -2.345,-0.458 z"
     id="path122"
     style="fill:#1e3319" /></g>
</svg>